<?xml version="1.0" encoding="UTF-8"?>
<svg width="752pt" height="752pt" version="1.1" viewBox="0 0 752 752" xmlns="http://www.w3.org/2000/svg">
 <defs>
  <clipPath id="b">
   <path d="m238 139.21h374.79v374.79h-374.79z"/>
  </clipPath>
  <clipPath id="a">
   <path d="m139.21 238h374.79v374.79h-374.79z"/>
  </clipPath>
 </defs>
 <g clip-path="url(#b)">
  <path d="m376 139.21c-51.125 0-98.344 16.379-137.04 43.945l14.07 14.066 0.078125 0.078125c34.988-24.129 77.293-38.355 122.89-38.355 119.66 0 217.06 97.379 217.06 217.06 0 45.602-14.227 87.91-38.34 122.89v0.019531l14.168 14.148c27.527-38.719 43.906-85.938 43.906-137.07 0-130.77-106.02-236.79-236.79-236.79z"/>
 </g>
 <g clip-path="url(#a)">
  <path d="m376 612.79c51.148 0 98.348-16.379 137.04-43.945l-14.148-14.148c-34.965 24.133-77.293 38.359-122.89 38.359-119.68 0-217.05-97.379-217.05-217.06 0-45.602 14.227-87.91 38.34-122.88l-0.082031-0.078125-14.066-14.09c-27.547 38.719-43.926 85.918-43.926 137.04 0 130.77 106.02 236.79 236.79 236.79z"/>
 </g>
 <path d="m279.69 425.65c-21.746 2.3867-40.453 19.734-41.734 38.637-1.3203 18.902 15.254 32.242 37 29.855 21.785-2.4258 40.473-19.734 41.773-38.617 0-0.21875-0.039062-0.39453-0.039062-0.57031h0.11719v-82.324l-19.004-19.004-0.73047-0.75v74.57c-5.168-1.7383-11.012-2.5273-17.383-1.7969z"/>
 <path d="m454.93 399.11 19.734 19.73v-161.23l-145.11 16.121 23.719 23.719 11.781 11.801 89.879-9.9844z"/>
 <path d="m152.89 180.51 27.938-27.898 418.29 418.88-27.938 27.898z"/>
</svg>
