<?xml version="1.0" encoding="UTF-8"?>
<svg width="752pt" height="752pt" version="1.1" viewBox="0 0 752 752" xmlns="http://www.w3.org/2000/svg">
 <defs>
  <clipPath id="a">
   <path d="m139.21 139.21h473.58v473.58h-473.58z"/>
  </clipPath>
 </defs>
 <g clip-path="url(#a)">
  <path d="m376 139.21c-130.77 0-236.79 106.02-236.79 236.79s106.02 236.79 236.79 236.79 236.79-106.02 236.79-236.79c0.003907-130.77-106.02-236.79-236.79-236.79zm0 453.85c-119.68 0-217.05-97.379-217.05-217.06 0-119.68 97.379-217.05 217.05-217.05 119.66 0 217.06 97.379 217.06 217.06 0 119.68-97.398 217.05-217.06 217.05z"/>
 </g>
 <path d="m297.07 427.45c-5.1719-1.7578-11.012-2.5273-17.383-1.8164-21.746 2.3867-40.453 19.734-41.734 38.637-1.3203 18.902 15.254 32.242 37 29.855 21.766-2.4258 40.473-19.734 41.773-38.617 0-0.21875-0.039062-0.39453-0.039062-0.57031l0.11719-0.003906v-140.32l138.13-15.332v108.45c-5.1719-1.7578-11.012-2.5273-17.383-1.8164-21.746 2.3867-40.453 19.734-41.734 38.637-1.3203 18.902 15.254 32.242 37 29.855 21.766-2.4258 40.473-19.734 41.773-38.617 0-0.21875-0.039063-0.375-0.039063-0.57031h0.11328v-177.61l-177.59 19.734z"/>
</svg>
